<svg width="464" height="189" viewBox="0 0 464 189" fill="none" xmlns="http://www.w3.org/2000/svg">
<path d="M34.59 4.63519H20.3947V41.1373H15.1801V4.63519H0.984863V0H34.59V4.63519Z" fill="white"/>
<path d="M57.4912 41.427C54.2079 41.427 51.4461 40.8669 49.2058 39.7467C46.9654 38.588 45.1693 37.0429 43.8174 35.1116C42.4654 33.1416 41.4805 30.9206 40.8624 28.4485C40.2444 25.9764 39.9354 23.427 39.9354 20.8004V0H45.15V20.8004C45.15 22.809 45.3431 24.7789 45.7294 26.7103C46.1543 28.603 46.8302 30.3025 47.7573 31.809C48.6843 33.3154 49.9397 34.5128 51.5234 35.4013C53.1071 36.2897 55.077 36.7339 57.4332 36.7339C59.8281 36.7339 61.8173 36.2897 63.401 35.4013C64.9847 34.4742 66.2401 33.2575 67.1671 31.751C68.0942 30.206 68.7508 28.4871 69.1371 26.5944C69.562 24.7017 69.7744 22.7704 69.7744 20.8004V0H74.989V20.8004C74.989 23.5815 74.6607 26.2274 74.004 28.7382C73.386 31.2103 72.3817 33.3927 70.9912 35.2854C69.6006 37.1781 67.7851 38.6845 65.5448 39.8047C63.3431 40.8862 60.6585 41.427 57.4912 41.427Z" fill="white"/>
<path d="M119.828 41.1373V9.7339L106.27 33.8948H103.083L89.4672 9.7339V41.1373H84.2526V0H89.7569L104.647 26.7103L119.596 0H125.042V41.1373H119.828Z" fill="white"/>
<path d="M2.25977 160.602C2.25977 158.091 2.68466 155.639 3.53444 153.244C4.42285 150.81 5.69753 148.608 7.35847 146.639C9.05804 144.63 11.1246 143.046 13.558 141.887C15.9915 140.69 18.7533 140.091 21.8434 140.091C25.513 140.091 28.661 140.941 31.2876 142.641C33.9142 144.302 35.8649 146.445 37.1396 149.072L33.0258 151.737C32.2147 149.999 31.1718 148.628 29.8971 147.624C28.661 146.581 27.3091 145.847 25.8413 145.422C24.4121 144.997 23.0022 144.784 21.6117 144.784C19.3327 144.784 17.3048 145.248 15.528 146.175C13.7898 147.102 12.322 148.338 11.1246 149.883C9.92714 151.428 9.01942 153.166 8.40139 155.098C7.82199 156.99 7.53229 158.902 7.53229 160.834C7.53229 162.958 7.87993 165.005 8.57521 166.975C9.30912 168.945 10.3134 170.684 11.5881 172.19C12.8628 173.696 14.3692 174.894 16.1074 175.782C17.8456 176.671 19.7383 177.115 21.7855 177.115C23.2147 177.115 24.6825 176.864 26.1889 176.362C27.6954 175.86 29.1052 175.087 30.4185 174.044C31.7318 172.963 32.7748 171.572 33.5473 169.872L37.8928 172.248C37.043 174.295 35.7297 176.033 33.9529 177.463C32.1761 178.892 30.1868 179.973 27.9851 180.707C25.822 181.441 23.6782 181.808 21.5537 181.808C18.734 181.808 16.146 181.209 13.7898 180.012C11.4336 178.776 9.38637 177.154 7.64817 175.145C5.9486 173.098 4.61599 170.819 3.65032 168.308C2.72328 165.759 2.25977 163.19 2.25977 160.602Z" fill="white"/>
<path d="M60.6532 181.75C57.7562 181.75 55.1296 181.171 52.7734 180.012C50.4172 178.853 48.3699 177.289 46.6317 175.319C44.9322 173.31 43.6189 171.07 42.6918 168.598C41.7648 166.087 41.3013 163.518 41.3013 160.892C41.3013 158.149 41.7841 155.542 42.7498 153.07C43.7541 150.559 45.1253 148.338 46.8635 146.407C48.6403 144.437 50.7069 142.892 53.0631 141.772C55.4193 140.613 57.988 140.033 60.7691 140.033C63.6661 140.033 66.2927 140.632 68.6489 141.83C71.0051 143.027 73.033 144.63 74.7326 146.639C76.4321 148.647 77.7455 150.887 78.6725 153.36C79.5995 155.832 80.063 158.362 80.063 160.95C80.063 163.692 79.5802 166.319 78.6146 168.83C77.6489 171.302 76.2776 173.523 74.5008 175.493C72.7626 177.424 70.7154 178.95 68.3592 180.07C66.003 181.19 63.4343 181.75 60.6532 181.75ZM46.5738 160.892C46.5738 162.978 46.9021 165.005 47.5588 166.975C48.2541 168.907 49.2197 170.626 50.4558 172.132C51.6918 173.639 53.179 174.836 54.9171 175.724C56.6553 176.613 58.5867 177.057 60.7111 177.057C62.9128 177.057 64.8828 176.593 66.621 175.666C68.3592 174.739 69.827 173.503 71.0244 171.958C72.2605 170.413 73.1875 168.675 73.8055 166.744C74.4622 164.812 74.7905 162.862 74.7905 160.892C74.7905 158.806 74.4429 156.797 73.7476 154.866C73.091 152.935 72.1253 151.216 70.8506 149.709C69.6146 148.164 68.1274 146.967 66.3892 146.117C64.6897 145.229 62.797 144.784 60.7111 144.784C58.5094 144.784 56.5395 145.248 54.8013 146.175C53.0631 147.063 51.5759 148.28 50.3399 149.825C49.1425 151.37 48.2154 153.108 47.5588 155.04C46.9021 156.933 46.5738 158.883 46.5738 160.892Z" fill="white"/>
<path d="M92.5228 149.941V181.46H87.3082V140.323H91.7117L116.858 172.48V140.381H122.072V181.46H117.321L92.5228 149.941Z" fill="white"/>
<path d="M131.895 181.46V140.323H159.069V144.958H137.109V158.69H155.592V163.036H137.109V181.46H131.895Z" fill="white"/>
<path d="M193.601 176.825V181.46H165.674V140.323H193.08V144.958H170.889V158.284H190.183V162.63H170.889V176.825H193.601Z" fill="white"/>
<path d="M200.755 181.46V140.323H218.369C220.184 140.323 221.845 140.709 223.352 141.482C224.858 142.216 226.171 143.22 227.291 144.495C228.412 145.731 229.281 147.141 229.899 148.724C230.517 150.269 230.826 151.853 230.826 153.475C230.826 155.368 230.459 157.164 229.725 158.864C229.03 160.563 228.025 162.012 226.712 163.209C225.437 164.407 223.931 165.237 222.193 165.701L232.158 181.46H226.248L216.862 166.686H205.97V181.46H200.755ZM205.97 162.051H218.427C219.856 162.051 221.092 161.664 222.135 160.892C223.216 160.081 224.047 159.018 224.626 157.705C225.244 156.392 225.553 154.982 225.553 153.475C225.553 151.93 225.206 150.521 224.51 149.246C223.815 147.933 222.907 146.89 221.787 146.117C220.667 145.345 219.431 144.958 218.079 144.958H205.97V162.051Z" fill="white"/>
<path d="M266.762 176.825V181.46H238.835V140.323H266.24V144.958H244.049V158.284H263.343V162.63H244.049V176.825H266.762Z" fill="white"/>
<path d="M279.13 149.941V181.46H273.915V140.323H278.319L303.465 172.48V140.381H308.679V181.46H303.928L279.13 149.941Z" fill="white"/>
<path d="M315.837 160.602C315.837 158.091 316.262 155.639 317.111 153.244C318 150.81 319.274 148.608 320.935 146.639C322.635 144.63 324.701 143.046 327.135 141.887C329.568 140.69 332.33 140.091 335.42 140.091C339.09 140.091 342.238 140.941 344.865 142.641C347.491 144.302 349.442 146.445 350.716 149.072L346.603 151.737C345.792 149.999 344.749 148.628 343.474 147.624C342.238 146.581 340.886 145.847 339.418 145.422C337.989 144.997 336.579 144.784 335.189 144.784C332.91 144.784 330.882 145.248 329.105 146.175C327.367 147.102 325.899 148.338 324.701 149.883C323.504 151.428 322.596 153.166 321.978 155.098C321.399 156.99 321.109 158.902 321.109 160.834C321.109 162.958 321.457 165.005 322.152 166.975C322.886 168.945 323.89 170.684 325.165 172.19C326.44 173.696 327.946 174.894 329.684 175.782C331.422 176.671 333.315 177.115 335.362 177.115C336.792 177.115 338.259 176.864 339.766 176.362C341.272 175.86 342.682 175.087 343.995 174.044C345.309 172.963 346.352 171.572 347.124 169.872L351.47 172.248C350.62 174.295 349.307 176.033 347.53 177.463C345.753 178.892 343.764 179.973 341.562 180.707C339.399 181.441 337.255 181.808 335.131 181.808C332.311 181.808 329.723 181.209 327.367 180.012C325.01 178.776 322.963 177.154 321.225 175.145C319.525 173.098 318.193 170.819 317.227 168.308C316.3 165.759 315.837 163.19 315.837 160.602Z" fill="white"/>
<path d="M385.923 176.825V181.46H357.996V140.323H385.402V144.958H363.211V158.284H382.505V162.63H363.211V176.825H385.923Z" fill="white"/>
<path d="M405.298 181.46C405.298 179.915 405.414 178.467 405.646 177.115C405.916 175.763 406.38 174.469 407.037 173.233C407.732 171.997 408.697 170.819 409.934 169.699C411.17 168.54 412.773 167.42 414.742 166.338C415.901 165.681 417.06 165.063 418.219 164.484C419.416 163.905 420.517 163.287 421.521 162.63C422.564 161.973 423.395 161.259 424.013 160.486C424.631 159.675 424.94 158.748 424.94 157.705C424.94 156.817 424.67 155.967 424.129 155.156C423.627 154.306 422.854 153.63 421.811 153.128C420.807 152.587 419.552 152.317 418.045 152.317C416.886 152.317 415.824 152.471 414.858 152.78C413.931 153.089 413.082 153.495 412.309 153.997C411.575 154.46 410.919 154.963 410.339 155.503C409.798 156.006 409.335 156.469 408.949 156.894L405.762 153.302C406.071 152.954 406.592 152.49 407.326 151.911C408.06 151.293 408.987 150.675 410.107 150.057C411.228 149.439 412.521 148.918 413.989 148.493C415.496 148.029 417.137 147.797 418.914 147.797C421.309 147.797 423.356 148.222 425.056 149.072C426.794 149.883 428.127 151.003 429.054 152.433C429.981 153.823 430.444 155.387 430.444 157.126C430.444 158.632 430.116 159.945 429.459 161.066C428.841 162.186 428.03 163.171 427.026 164.021C426.06 164.87 425.037 165.604 423.955 166.222C422.912 166.802 421.966 167.304 421.116 167.729C419.378 168.578 417.891 169.351 416.655 170.046C415.418 170.742 414.395 171.437 413.584 172.132C412.811 172.789 412.174 173.484 411.672 174.218C411.208 174.952 410.861 175.821 410.629 176.825H431.082V181.46H405.298Z" fill="url(#paint0_linear_123_1145)"/>
<path d="M453.803 188.819V179.027H435.204V174.508L455.425 148.377H458.902V174.392H464V179.027H458.902V188.819H453.803ZM440.477 174.392H454.325V156.257L440.477 174.392Z" fill="url(#paint1_linear_123_1145)"/>
<path fill-rule="evenodd" clip-rule="evenodd" d="M0 64.68V113.16H24.24V105.08H32.32V92.96H24.24V84.88H32.32V72.76H24.24V64.68H0ZM24.24 72.76V84.88H8.08V72.76H24.24ZM8.08 105.08H24.24V92.96H8.08V105.08Z" fill="white"/>
<path d="M48.4799 64.68H40.3999V113.16H64.6399V105.08H48.4799V64.68Z" fill="white"/>
<path d="M80.7997 64.68H96.9597V72.76H80.7997V64.68Z" fill="white"/>
<path d="M80.7997 105.08V72.76H72.7197V105.08H80.7997Z" fill="white"/>
<path d="M96.9597 105.08V113.16H80.7997V105.08H96.9597Z" fill="white"/>
<path d="M96.9597 105.08V72.76H105.04V105.08H96.9597Z" fill="white"/>
<path d="M121.2 64.68H145.44V72.76H121.2V64.68Z" fill="white"/>
<path d="M121.2 105.08V72.76H113.12V105.08H121.2Z" fill="white"/>
<path d="M121.2 105.08V113.16H145.44V105.08H121.2Z" fill="white"/>
<path d="M161.6 64.68H153.52V113.16H161.6V88.92H169.68V97H177.76V113.16H185.84V97H177.76V88.92H169.68V80.84H177.76V72.76H185.84V64.68H177.76V72.76H169.68V80.84H161.6V64.68Z" fill="white"/>
<path d="M202 64.68H226.24V72.76H202V64.68Z" fill="white"/>
<path d="M202 105.08V72.76H193.92V105.08H202Z" fill="white"/>
<path d="M202 105.08V113.16H226.24V105.08H202Z" fill="white"/>
<path d="M234.32 64.68H242.4V84.88H258.56V64.68H266.64V113.16H258.56V92.96H242.4V113.16H234.32V64.68Z" fill="white"/>
<path d="M282.8 64.68H298.96V72.76H282.8V64.68Z" fill="white"/>
<path d="M282.8 88.92V72.76H274.72V113.16H282.8V97H298.96V113.16H307.04V72.76H298.96V88.92H282.8Z" fill="white"/>
<path d="M315.12 64.68H323.2V113.16H315.12V64.68Z" fill="white"/>
<path d="M331.28 64.68H339.36V76.8H347.44V84.88H339.36V113.16H331.28V64.68Z" fill="white"/>
<path d="M355.52 92.96H347.44V84.88H355.52V92.96Z" fill="white"/>
<path d="M363.6 92.96H355.52V100.787H363.6V113.16H371.68V64.68H363.6V92.96Z" fill="white"/>
<defs>
<linearGradient id="paint0_linear_123_1145" x1="409.736" y1="137.553" x2="469.866" y2="185.998" gradientUnits="userSpaceOnUse">
<stop stop-color="#FFCB6D"/>
<stop offset="0.515" stop-color="#E434A5"/>
<stop offset="1" stop-color="#348AEB"/>
</linearGradient>
<linearGradient id="paint1_linear_123_1145" x1="409.736" y1="137.553" x2="469.866" y2="185.998" gradientUnits="userSpaceOnUse">
<stop stop-color="#FFCB6D"/>
<stop offset="0.515" stop-color="#E434A5"/>
<stop offset="1" stop-color="#348AEB"/>
</linearGradient>
</defs>
</svg>
