<svg width="252" height="252" viewBox="0 0 252 252" fill="none" xmlns="http://www.w3.org/2000/svg">
<g clip-path="url(#clip0_14_73)">
<path fill-rule="evenodd" clip-rule="evenodd" d="M143.716 159.676L102.147 148.538L91.0084 106.968L97.4494 108.694L95.5001 101.418L85.4207 98.7175L47 137.138L61.0627 189.622L113.546 203.685L151.967 165.264L137.904 112.78L118.945 107.7L120.895 114.976L132.577 118.107L143.716 159.676ZM111.597 196.409L142.028 165.978L100.458 154.839L70.0273 185.27L111.597 196.409ZM65.4145 180.657L95.8454 150.226L84.7069 108.657L54.276 139.088L65.4145 180.657ZM106.969 91.0082L148.538 102.147L159.676 143.716L153.235 141.99L155.185 149.266L165.264 151.967L203.684 113.547L189.621 61.0628L137.138 47.0001L98.7174 85.4208L112.78 137.904L131.739 142.984L129.79 135.708L118.107 132.578L106.969 91.0082ZM185.27 70.0271L154.839 100.458L165.978 142.028L196.408 111.597L185.27 70.0271ZM139.088 54.2761L108.657 84.707L150.226 95.8452L180.657 65.4143L139.088 54.2761Z" fill="white"/>
</g>
<defs>
<clipPath id="clip0_14_73">
<rect width="157" height="157" fill="white" transform="translate(47 47)"/>
</clipPath>
</defs>
</svg>
